<?xml version="1.0" encoding="UTF-8"?>
<svg xmlns="http://www.w3.org/2000/svg" width="1254" height="1254"
     viewBox="0 0 1254 1254" role="img" aria-label="Layered Upgrader wheel">
  <title>Upgrader Wheel — layered editable SVG</title>
  <desc>Vector-only circular wheel. Every visual component is separated into named groups and can be independently animated or recolored.</desc>

  <defs>
    <radialGradient id="outerDark" cx="50%" cy="46%" r="58%">
      <stop offset="0%" stop-color="#14191b"/>
      <stop offset="72%" stop-color="#101416"/>
      <stop offset="100%" stop-color="#090c0d"/>
    </radialGradient>
    <radialGradient id="centerDark" cx="50%" cy="48%" r="65%">
      <stop offset="0%" stop-color="#151a1b"/>
      <stop offset="100%" stop-color="#0c1011"/>
    </radialGradient>
    <linearGradient id="metal" x1="0" y1="0" x2="1" y2="1">
      <stop offset="0%" stop-color="#777777"/>
      <stop offset="22%" stop-color="#4e5050"/>
      <stop offset="55%" stop-color="#303333"/>
      <stop offset="78%" stop-color="#666666"/>
      <stop offset="100%" stop-color="#414343"/>
    </linearGradient>
    <linearGradient id="innerMetal" x1="0" y1="0" x2="1" y2="1">
      <stop offset="0%" stop-color="#555858"/>
      <stop offset="50%" stop-color="#303333"/>
      <stop offset="100%" stop-color="#4d5050"/>
    </linearGradient>
    <pattern id="radialTexture" width="8" height="8" patternUnits="userSpaceOnUse">
      <path d="M4 4 L4 0" stroke="#24292a" stroke-width="1" opacity=".5"/>
    </pattern>
    <filter id="softShadow" x="-20%" y="-20%" width="140%" height="140%">
      <feGaussianBlur stdDeviation="7"/>
    </filter>
    <style>
      .outer-tick,.inner-tick { stroke:#3a3f40; stroke-width:3; stroke-linecap:round; }
      .outer-tick.major,.inner-tick.major { stroke:#525758; stroke-width:4; }
      .layer { transform-box:fill-box; transform-origin:50% 50%; }
      .metal-layer { transform-box:fill-box; transform-origin:50% 50%; }
    </style>
  </defs>

  <!-- LAYER 01: shadow -->
  <g id="layer-shadow" class="layer" aria-label="Shadow">
    <circle cx="627" cy="634" r="486" fill="#000" opacity=".45" filter="url(#softShadow)"/>
  </g>

  <!-- LAYER 02: outer metallic rim -->
  <g id="layer-outer-rim" class="metal-layer" aria-label="Outer metallic rim">
    <circle cx="627" cy="627" r="490" fill="url(#metal)"/>
    <circle cx="627" cy="627" r="467" fill="#090c0d"/>
  </g>

  <!-- LAYER 03: outer dark wheel face -->
  <g id="layer-outer-face" class="layer" aria-label="Outer dark face">
    <circle cx="627" cy="627" r="464" fill="url(#outerDark)"/>
    <circle cx="627" cy="627" r="462" fill="url(#radialTexture)" opacity=".62"/>
  </g>

  <!-- LAYER 04: outer scale -->
  <g id="layer-outer-scale" class="layer" aria-label="Outer scale ticks">
    <line x1="627.00" y1="237.00" x2="627.00" y2="204.00" class="outer-tick major"/><line x1="647.99" y1="226.55" x2="648.67" y2="213.57" class="outer-tick "/><line x1="668.92" y1="228.20" x2="670.27" y2="215.27" class="outer-tick "/><line x1="689.73" y1="230.94" x2="691.76" y2="218.10" class="outer-tick "/><line x1="710.37" y1="234.76" x2="713.08" y2="222.05" class="outer-tick "/><line x1="730.79" y1="239.66" x2="734.15" y2="227.11" class="outer-tick "/><line x1="750.92" y1="245.63" x2="754.93" y2="233.26" class="outer-tick "/><line x1="770.71" y1="252.63" x2="775.36" y2="240.50" class="outer-tick "/><line x1="790.10" y1="260.67" x2="795.39" y2="248.79" class="outer-tick "/><line x1="809.05" y1="269.71" x2="814.95" y2="258.12" class="outer-tick "/><line x1="822.00" y1="289.25" x2="838.50" y2="260.67" class="outer-tick major"/><line x1="845.40" y1="290.69" x2="852.48" y2="279.79" class="outer-tick "/><line x1="862.70" y1="302.58" x2="870.34" y2="292.07" class="outer-tick "/><line x1="879.36" y1="315.36" x2="887.54" y2="305.26" class="outer-tick "/><line x1="895.32" y1="329.00" x2="904.02" y2="319.34" class="outer-tick "/><line x1="910.55" y1="343.45" x2="919.74" y2="334.26" class="outer-tick "/><line x1="925.00" y1="358.68" x2="934.66" y2="349.98" class="outer-tick "/><line x1="938.64" y1="374.64" x2="948.74" y2="366.46" class="outer-tick "/><line x1="951.42" y1="391.30" x2="961.93" y2="383.66" class="outer-tick "/><line x1="963.31" y1="408.60" x2="974.21" y2="401.52" class="outer-tick "/><line x1="964.75" y1="432.00" x2="993.33" y2="415.50" class="outer-tick major"/><line x1="984.29" y1="444.95" x2="995.88" y2="439.05" class="outer-tick "/><line x1="993.33" y1="463.90" x2="1005.21" y2="458.61" class="outer-tick "/><line x1="1001.37" y1="483.29" x2="1013.50" y2="478.64" class="outer-tick "/><line x1="1008.37" y1="503.08" x2="1020.74" y2="499.07" class="outer-tick "/><line x1="1014.34" y1="523.21" x2="1026.89" y2="519.85" class="outer-tick "/><line x1="1019.24" y1="543.63" x2="1031.95" y2="540.92" class="outer-tick "/><line x1="1023.06" y1="564.27" x2="1035.90" y2="562.24" class="outer-tick "/><line x1="1025.80" y1="585.08" x2="1038.73" y2="583.73" class="outer-tick "/><line x1="1027.45" y1="606.01" x2="1040.43" y2="605.33" class="outer-tick "/><line x1="1017.00" y1="627.00" x2="1050.00" y2="627.00" class="outer-tick major"/><line x1="1027.45" y1="647.99" x2="1040.43" y2="648.67" class="outer-tick "/><line x1="1025.80" y1="668.92" x2="1038.73" y2="670.27" class="outer-tick "/><line x1="1023.06" y1="689.73" x2="1035.90" y2="691.76" class="outer-tick "/><line x1="1019.24" y1="710.37" x2="1031.95" y2="713.08" class="outer-tick "/><line x1="1014.34" y1="730.79" x2="1026.89" y2="734.15" class="outer-tick "/><line x1="1008.37" y1="750.92" x2="1020.74" y2="754.93" class="outer-tick "/><line x1="1001.37" y1="770.71" x2="1013.50" y2="775.36" class="outer-tick "/><line x1="993.33" y1="790.10" x2="1005.21" y2="795.39" class="outer-tick "/><line x1="984.29" y1="809.05" x2="995.88" y2="814.95" class="outer-tick "/><line x1="964.75" y1="822.00" x2="993.33" y2="838.50" class="outer-tick major"/><line x1="963.31" y1="845.40" x2="974.21" y2="852.48" class="outer-tick "/><line x1="951.42" y1="862.70" x2="961.93" y2="870.34" class="outer-tick "/><line x1="938.64" y1="879.36" x2="948.74" y2="887.54" class="outer-tick "/><line x1="925.00" y1="895.32" x2="934.66" y2="904.02" class="outer-tick "/><line x1="910.55" y1="910.55" x2="919.74" y2="919.74" class="outer-tick "/><line x1="895.32" y1="925.00" x2="904.02" y2="934.66" class="outer-tick "/><line x1="879.36" y1="938.64" x2="887.54" y2="948.74" class="outer-tick "/><line x1="862.70" y1="951.42" x2="870.34" y2="961.93" class="outer-tick "/><line x1="845.40" y1="963.31" x2="852.48" y2="974.21" class="outer-tick "/><line x1="822.00" y1="964.75" x2="838.50" y2="993.33" class="outer-tick major"/><line x1="809.05" y1="984.29" x2="814.95" y2="995.88" class="outer-tick "/><line x1="790.10" y1="993.33" x2="795.39" y2="1005.21" class="outer-tick "/><line x1="770.71" y1="1001.37" x2="775.36" y2="1013.50" class="outer-tick "/><line x1="750.92" y1="1008.37" x2="754.93" y2="1020.74" class="outer-tick "/><line x1="730.79" y1="1014.34" x2="734.15" y2="1026.89" class="outer-tick "/><line x1="710.37" y1="1019.24" x2="713.08" y2="1031.95" class="outer-tick "/><line x1="689.73" y1="1023.06" x2="691.76" y2="1035.90" class="outer-tick "/><line x1="668.92" y1="1025.80" x2="670.27" y2="1038.73" class="outer-tick "/><line x1="647.99" y1="1027.45" x2="648.67" y2="1040.43" class="outer-tick "/><line x1="627.00" y1="1017.00" x2="627.00" y2="1050.00" class="outer-tick major"/><line x1="606.01" y1="1027.45" x2="605.33" y2="1040.43" class="outer-tick "/><line x1="585.08" y1="1025.80" x2="583.73" y2="1038.73" class="outer-tick "/><line x1="564.27" y1="1023.06" x2="562.24" y2="1035.90" class="outer-tick "/><line x1="543.63" y1="1019.24" x2="540.92" y2="1031.95" class="outer-tick "/><line x1="523.21" y1="1014.34" x2="519.85" y2="1026.89" class="outer-tick "/><line x1="503.08" y1="1008.37" x2="499.07" y2="1020.74" class="outer-tick "/><line x1="483.29" y1="1001.37" x2="478.64" y2="1013.50" class="outer-tick "/><line x1="463.90" y1="993.33" x2="458.61" y2="1005.21" class="outer-tick "/><line x1="444.95" y1="984.29" x2="439.05" y2="995.88" class="outer-tick "/><line x1="432.00" y1="964.75" x2="415.50" y2="993.33" class="outer-tick major"/><line x1="408.60" y1="963.31" x2="401.52" y2="974.21" class="outer-tick "/><line x1="391.30" y1="951.42" x2="383.66" y2="961.93" class="outer-tick "/><line x1="374.64" y1="938.64" x2="366.46" y2="948.74" class="outer-tick "/><line x1="358.68" y1="925.00" x2="349.98" y2="934.66" class="outer-tick "/><line x1="343.45" y1="910.55" x2="334.26" y2="919.74" class="outer-tick "/><line x1="329.00" y1="895.32" x2="319.34" y2="904.02" class="outer-tick "/><line x1="315.36" y1="879.36" x2="305.26" y2="887.54" class="outer-tick "/><line x1="302.58" y1="862.70" x2="292.07" y2="870.34" class="outer-tick "/><line x1="290.69" y1="845.40" x2="279.79" y2="852.48" class="outer-tick "/><line x1="289.25" y1="822.00" x2="260.67" y2="838.50" class="outer-tick major"/><line x1="269.71" y1="809.05" x2="258.12" y2="814.95" class="outer-tick "/><line x1="260.67" y1="790.10" x2="248.79" y2="795.39" class="outer-tick "/><line x1="252.63" y1="770.71" x2="240.50" y2="775.36" class="outer-tick "/><line x1="245.63" y1="750.92" x2="233.26" y2="754.93" class="outer-tick "/><line x1="239.66" y1="730.79" x2="227.11" y2="734.15" class="outer-tick "/><line x1="234.76" y1="710.37" x2="222.05" y2="713.08" class="outer-tick "/><line x1="230.94" y1="689.73" x2="218.10" y2="691.76" class="outer-tick "/><line x1="228.20" y1="668.92" x2="215.27" y2="670.27" class="outer-tick "/><line x1="226.55" y1="647.99" x2="213.57" y2="648.67" class="outer-tick "/><line x1="237.00" y1="627.00" x2="204.00" y2="627.00" class="outer-tick major"/><line x1="226.55" y1="606.01" x2="213.57" y2="605.33" class="outer-tick "/><line x1="228.20" y1="585.08" x2="215.27" y2="583.73" class="outer-tick "/><line x1="230.94" y1="564.27" x2="218.10" y2="562.24" class="outer-tick "/><line x1="234.76" y1="543.63" x2="222.05" y2="540.92" class="outer-tick "/><line x1="239.66" y1="523.21" x2="227.11" y2="519.85" class="outer-tick "/><line x1="245.63" y1="503.08" x2="233.26" y2="499.07" class="outer-tick "/><line x1="252.63" y1="483.29" x2="240.50" y2="478.64" class="outer-tick "/><line x1="260.67" y1="463.90" x2="248.79" y2="458.61" class="outer-tick "/><line x1="269.71" y1="444.95" x2="258.12" y2="439.05" class="outer-tick "/><line x1="289.25" y1="432.00" x2="260.67" y2="415.50" class="outer-tick major"/><line x1="290.69" y1="408.60" x2="279.79" y2="401.52" class="outer-tick "/><line x1="302.58" y1="391.30" x2="292.07" y2="383.66" class="outer-tick "/><line x1="315.36" y1="374.64" x2="305.26" y2="366.46" class="outer-tick "/><line x1="329.00" y1="358.68" x2="319.34" y2="349.98" class="outer-tick "/><line x1="343.45" y1="343.45" x2="334.26" y2="334.26" class="outer-tick "/><line x1="358.68" y1="329.00" x2="349.98" y2="319.34" class="outer-tick "/><line x1="374.64" y1="315.36" x2="366.46" y2="305.26" class="outer-tick "/><line x1="391.30" y1="302.58" x2="383.66" y2="292.07" class="outer-tick "/><line x1="408.60" y1="290.69" x2="401.52" y2="279.79" class="outer-tick "/><line x1="432.00" y1="289.25" x2="415.50" y2="260.67" class="outer-tick major"/><line x1="444.95" y1="269.71" x2="439.05" y2="258.12" class="outer-tick "/><line x1="463.90" y1="260.67" x2="458.61" y2="248.79" class="outer-tick "/><line x1="483.29" y1="252.63" x2="478.64" y2="240.50" class="outer-tick "/><line x1="503.08" y1="245.63" x2="499.07" y2="233.26" class="outer-tick "/><line x1="523.21" y1="239.66" x2="519.85" y2="227.11" class="outer-tick "/><line x1="543.63" y1="234.76" x2="540.92" y2="222.05" class="outer-tick "/><line x1="564.27" y1="230.94" x2="562.24" y2="218.10" class="outer-tick "/><line x1="585.08" y1="228.20" x2="583.73" y2="215.27" class="outer-tick "/><line x1="606.01" y1="226.55" x2="605.33" y2="213.57" class="outer-tick "/>
  </g>

  <!-- LAYER 05: middle metallic ring -->
  <g id="layer-middle-ring" class="metal-layer" aria-label="Middle metallic ring">
    <circle cx="627" cy="627" r="314" fill="url(#innerMetal)"/>
    <circle cx="627" cy="627" r="300" fill="#101415"/>
  </g>

  <!-- LAYER 06: inner face -->
  <g id="layer-inner-face" class="layer" aria-label="Inner dark face">
    <circle cx="627" cy="627" r="296" fill="url(#centerDark)"/>
    <circle cx="627" cy="627" r="294" fill="url(#radialTexture)" opacity=".35"/>
  </g>

  <!-- LAYER 07: inner scale -->
  <g id="layer-inner-scale" class="layer" aria-label="Inner scale ticks">
    <line x1="627.00" y1="387.00" x2="627.00" y2="360.00" class="inner-tick major"/><line x1="642.51" y1="380.49" x2="643.20" y2="369.51" class="inner-tick "/><line x1="657.96" y1="381.95" x2="659.34" y2="371.03" class="inner-tick "/><line x1="673.28" y1="384.38" x2="675.34" y2="373.57" class="inner-tick "/><line x1="688.43" y1="387.76" x2="691.16" y2="377.11" class="inner-tick "/><line x1="703.33" y1="392.09" x2="706.73" y2="381.63" class="inner-tick "/><line x1="717.93" y1="397.35" x2="721.98" y2="387.12" class="inner-tick "/><line x1="732.17" y1="403.51" x2="736.85" y2="393.55" class="inner-tick "/><line x1="745.99" y1="410.55" x2="751.29" y2="400.91" class="inner-tick "/><line x1="759.35" y1="418.45" x2="765.24" y2="409.16" class="inner-tick "/><line x1="768.07" y1="432.84" x2="783.94" y2="410.99" class="inner-tick major"/><line x1="784.44" y1="436.68" x2="791.46" y2="428.21" class="inner-tick "/><line x1="796.08" y1="446.94" x2="803.61" y2="438.93" class="inner-tick "/><line x1="807.06" y1="457.92" x2="815.07" y2="450.39" class="inner-tick "/><line x1="817.32" y1="469.56" x2="825.79" y2="462.54" class="inner-tick "/><line x1="826.83" y1="481.82" x2="835.73" y2="475.35" class="inner-tick "/><line x1="835.55" y1="494.65" x2="844.84" y2="488.76" class="inner-tick "/><line x1="843.45" y1="508.01" x2="853.09" y2="502.71" class="inner-tick "/><line x1="850.49" y1="521.83" x2="860.45" y2="517.15" class="inner-tick "/><line x1="856.65" y1="536.07" x2="866.88" y2="532.02" class="inner-tick "/><line x1="855.25" y1="552.84" x2="880.93" y2="544.49" class="inner-tick major"/><line x1="866.24" y1="565.57" x2="876.89" y2="562.84" class="inner-tick "/><line x1="869.62" y1="580.72" x2="880.43" y2="578.66" class="inner-tick "/><line x1="872.05" y1="596.04" x2="882.97" y2="594.66" class="inner-tick "/><line x1="873.51" y1="611.49" x2="884.49" y2="610.80" class="inner-tick "/><line x1="874.00" y1="627.00" x2="885.00" y2="627.00" class="inner-tick "/><line x1="873.51" y1="642.51" x2="884.49" y2="643.20" class="inner-tick "/><line x1="872.05" y1="657.96" x2="882.97" y2="659.34" class="inner-tick "/><line x1="869.62" y1="673.28" x2="880.43" y2="675.34" class="inner-tick "/><line x1="866.24" y1="688.43" x2="876.89" y2="691.16" class="inner-tick "/><line x1="855.25" y1="701.16" x2="880.93" y2="709.51" class="inner-tick major"/><line x1="856.65" y1="717.93" x2="866.88" y2="721.98" class="inner-tick "/><line x1="850.49" y1="732.17" x2="860.45" y2="736.85" class="inner-tick "/><line x1="843.45" y1="745.99" x2="853.09" y2="751.29" class="inner-tick "/><line x1="835.55" y1="759.35" x2="844.84" y2="765.24" class="inner-tick "/><line x1="826.83" y1="772.18" x2="835.73" y2="778.65" class="inner-tick "/><line x1="817.32" y1="784.44" x2="825.79" y2="791.46" class="inner-tick "/><line x1="807.06" y1="796.08" x2="815.07" y2="803.61" class="inner-tick "/><line x1="796.08" y1="807.06" x2="803.61" y2="815.07" class="inner-tick "/><line x1="784.44" y1="817.32" x2="791.46" y2="825.79" class="inner-tick "/><line x1="768.07" y1="821.16" x2="783.94" y2="843.01" class="inner-tick major"/><line x1="759.35" y1="835.55" x2="765.24" y2="844.84" class="inner-tick "/><line x1="745.99" y1="843.45" x2="751.29" y2="853.09" class="inner-tick "/><line x1="732.17" y1="850.49" x2="736.85" y2="860.45" class="inner-tick "/><line x1="717.93" y1="856.65" x2="721.98" y2="866.88" class="inner-tick "/><line x1="703.33" y1="861.91" x2="706.73" y2="872.37" class="inner-tick "/><line x1="688.43" y1="866.24" x2="691.16" y2="876.89" class="inner-tick "/><line x1="673.28" y1="869.62" x2="675.34" y2="880.43" class="inner-tick "/><line x1="657.96" y1="872.05" x2="659.34" y2="882.97" class="inner-tick "/><line x1="642.51" y1="873.51" x2="643.20" y2="884.49" class="inner-tick "/><line x1="627.00" y1="867.00" x2="627.00" y2="894.00" class="inner-tick major"/><line x1="611.49" y1="873.51" x2="610.80" y2="884.49" class="inner-tick "/><line x1="596.04" y1="872.05" x2="594.66" y2="882.97" class="inner-tick "/><line x1="580.72" y1="869.62" x2="578.66" y2="880.43" class="inner-tick "/><line x1="565.57" y1="866.24" x2="562.84" y2="876.89" class="inner-tick "/><line x1="550.67" y1="861.91" x2="547.27" y2="872.37" class="inner-tick "/><line x1="536.07" y1="856.65" x2="532.02" y2="866.88" class="inner-tick "/><line x1="521.83" y1="850.49" x2="517.15" y2="860.45" class="inner-tick "/><line x1="508.01" y1="843.45" x2="502.71" y2="853.09" class="inner-tick "/><line x1="494.65" y1="835.55" x2="488.76" y2="844.84" class="inner-tick "/><line x1="485.93" y1="821.16" x2="470.06" y2="843.01" class="inner-tick major"/><line x1="469.56" y1="817.32" x2="462.54" y2="825.79" class="inner-tick "/><line x1="457.92" y1="807.06" x2="450.39" y2="815.07" class="inner-tick "/><line x1="446.94" y1="796.08" x2="438.93" y2="803.61" class="inner-tick "/><line x1="436.68" y1="784.44" x2="428.21" y2="791.46" class="inner-tick "/><line x1="427.17" y1="772.18" x2="418.27" y2="778.65" class="inner-tick "/><line x1="418.45" y1="759.35" x2="409.16" y2="765.24" class="inner-tick "/><line x1="410.55" y1="745.99" x2="400.91" y2="751.29" class="inner-tick "/><line x1="403.51" y1="732.17" x2="393.55" y2="736.85" class="inner-tick "/><line x1="397.35" y1="717.93" x2="387.12" y2="721.98" class="inner-tick "/><line x1="398.75" y1="701.16" x2="373.07" y2="709.51" class="inner-tick major"/><line x1="387.76" y1="688.43" x2="377.11" y2="691.16" class="inner-tick "/><line x1="384.38" y1="673.28" x2="373.57" y2="675.34" class="inner-tick "/><line x1="381.95" y1="657.96" x2="371.03" y2="659.34" class="inner-tick "/><line x1="380.49" y1="642.51" x2="369.51" y2="643.20" class="inner-tick "/><line x1="380.00" y1="627.00" x2="369.00" y2="627.00" class="inner-tick "/><line x1="380.49" y1="611.49" x2="369.51" y2="610.80" class="inner-tick "/><line x1="381.95" y1="596.04" x2="371.03" y2="594.66" class="inner-tick "/><line x1="384.38" y1="580.72" x2="373.57" y2="578.66" class="inner-tick "/><line x1="387.76" y1="565.57" x2="377.11" y2="562.84" class="inner-tick "/><line x1="398.75" y1="552.84" x2="373.07" y2="544.49" class="inner-tick major"/><line x1="397.35" y1="536.07" x2="387.12" y2="532.02" class="inner-tick "/><line x1="403.51" y1="521.83" x2="393.55" y2="517.15" class="inner-tick "/><line x1="410.55" y1="508.01" x2="400.91" y2="502.71" class="inner-tick "/><line x1="418.45" y1="494.65" x2="409.16" y2="488.76" class="inner-tick "/><line x1="427.17" y1="481.82" x2="418.27" y2="475.35" class="inner-tick "/><line x1="436.68" y1="469.56" x2="428.21" y2="462.54" class="inner-tick "/><line x1="446.94" y1="457.92" x2="438.93" y2="450.39" class="inner-tick "/><line x1="457.92" y1="446.94" x2="450.39" y2="438.93" class="inner-tick "/><line x1="469.56" y1="436.68" x2="462.54" y2="428.21" class="inner-tick "/><line x1="485.93" y1="432.84" x2="470.06" y2="410.99" class="inner-tick major"/><line x1="494.65" y1="418.45" x2="488.76" y2="409.16" class="inner-tick "/><line x1="508.01" y1="410.55" x2="502.71" y2="400.91" class="inner-tick "/><line x1="521.83" y1="403.51" x2="517.15" y2="393.55" class="inner-tick "/><line x1="536.07" y1="397.35" x2="532.02" y2="387.12" class="inner-tick "/><line x1="550.67" y1="392.09" x2="547.27" y2="381.63" class="inner-tick "/><line x1="565.57" y1="387.76" x2="562.84" y2="377.11" class="inner-tick "/><line x1="580.72" y1="384.38" x2="578.66" y2="373.57" class="inner-tick "/><line x1="596.04" y1="381.95" x2="594.66" y2="371.03" class="inner-tick "/><line x1="611.49" y1="380.49" x2="610.80" y2="369.51" class="inner-tick "/>
  </g>

  <!-- LAYER 08: center -->
  <g id="layer-center" class="layer" aria-label="Center plate">
    <circle cx="627" cy="627" r="232" fill="#111617" opacity=".55"/>
  </g>
</svg>
